<svg id="Layer_1" data-name="Layer 1" xmlns="http://www.w3.org/2000/svg" viewBox="0 0 169.79199 49.25625"><defs><style>.cls-1{fill:#1c1e1d;}.cls-2{fill:none;}</style></defs><g id="编组"><path id="Fill-77" class="cls-1" d="M46.69431,14.56006c-2.43913-2.01288-5.77814-3.00747-10.0407-3.00747h-10.609v1.49189h10.4196c3.62317,0,6.89114.73411,8.904,2.4865A9.82544,9.82544,0,0,1,48.873,23.01414a8.81547,8.81547,0,0,1-3.38637,7.05691c-2.06023,1.72871-5.80181,2.48649-9.51971,2.48649H24.008v1.49189H36.06159q6.71354,0,10.51432-2.91274a9.81458,9.81458,0,0,0,3.78894-8.21727,10.1707,10.1707,0,0,0-3.67054-8.35936" transform="translate(-15.104 -5.37187)"/><path id="Fill-79" class="cls-1" d="M45.79444,16.69134c-1.51558-1.16036-3.24428-2.08392-8.16991-2.08392H29.43094V16.052s3.67054-.04736,8.00414,0c4.19152.04736,5.73078.521,7.15163,1.56294a6.33508,6.33508,0,0,1,2.93643,5.28084c0,2.226-1.13668,3.78894-2.96011,5.13875-1.84711,1.37349-4.68882,1.37349-5.84918,1.42085h-6.086v1.44454s2.79435.04736,4.54673,0c3.97839-.09472,6.34648-.33153,8.5488-1.96551A7.28475,7.28475,0,0,0,48.873,22.8247a7.25887,7.25887,0,0,0-3.07851-6.13336" transform="translate(-15.104 -5.37187)"/><path id="Fill-80" class="cls-1" d="M45.06033,18.60949c-1.13668-.71043-2.13128-1.184-6.84378-1.184H32.32v.94723h5.73078c4.16784,0,5.73077.73411,6.22807,1.042a3.854,3.854,0,0,1,2.17865,3.41005,4.10672,4.10672,0,0,1-1.77607,3.339c-.97092.54466-2.747,1.042-5.84918,1.042H19.60337v.94724H38.87962c3.76526,0,5.044-.42626,6.37016-1.16037a4.6153,4.6153,0,0,0,2.226-4.16783,4.77673,4.77673,0,0,0-2.41545-4.2152" transform="translate(-15.104 -5.37187)"/></g><path id="Fill-81" class="cls-1" d="M48.80191,29.10013c-2.43913-2.01288-5.77813-3.00747-10.0407-3.00747H31.65694v1.49189h6.89115c3.62317,0,6.89114.75779,8.904,2.4865a9.80625,9.80625,0,0,1,3.52845,7.48316,8.74746,8.74746,0,0,1-3.38636,7.0569c-2.08392,1.72871-5.80182,2.4865-9.51972,2.4865H26.11562V48.5895H38.16919q6.71354,0,10.51431-2.91275a9.75184,9.75184,0,0,0,3.789-8.21727,10.303,10.303,0,0,0-3.67054-8.35935" transform="translate(-15.104 -5.37187)"/><path id="Fill-82" class="cls-1" d="M47.902,31.23141c-1.51558-1.13668-3.24428-2.08392-8.16991-2.08392h-11.13V30.592s6.607-.04737,10.94057,0c4.19152.04736,5.73078.521,7.15163,1.56294a6.33508,6.33508,0,0,1,2.93643,5.28084c0,2.226-1.13668,3.78894-2.96011,5.13875-1.84711,1.37349-4.68882,1.37349-5.84918,1.42086h-6.086V45.44s2.818.04737,4.54673,0c3.97839-.09472,6.34648-.33153,8.5488-1.96551a7.574,7.574,0,0,0,.071-12.243" transform="translate(-15.104 -5.37187)"/><polygon id="Fill-83" class="cls-1" points="15.866 30.785 26.309 30.785 26.309 29.98 15.866 29.98 15.866 30.785"/><polygon id="Fill-84" class="cls-1" points="20.176 33.603 26.238 33.603 26.238 32.916 20.176 32.916 20.176 33.603"/><polygon id="Fill-85" class="cls-1" points="11.012 30.785 14.09 30.785 14.09 29.98 11.012 29.98 11.012 30.785"/><polygon id="Fill-86" class="cls-1" points="9.07 33.651 18.471 33.651 18.471 32.845 9.07 32.845 9.07 33.651"/><polygon id="Fill-87" class="cls-1" points="11.391 12.93 15.061 12.93 15.061 12.267 11.391 12.267 11.391 12.93"/><polygon id="Fill-88" class="cls-1" points="8.857 18.329 17.216 18.329 17.216 17.571 8.857 17.571 8.857 18.329"/><polygon id="Fill-89" class="cls-1" points="9.07 39.973 17.903 39.973 17.903 39.026 9.07 39.026 9.07 39.973"/><polygon id="Fill-90" class="cls-1" points="6.891 43.123 9.093 43.123 9.093 41.726 6.891 41.726 6.891 43.123"/><polygon id="Fill-91" class="cls-1" points="12.385 15.961 26.262 15.961 26.262 15.203 12.385 15.203 12.385 15.961"/><polygon id="Fill-92" class="cls-1" points="19.324 18.329 26.002 18.329 26.002 17.571 19.324 17.571 19.324 18.329"/><path id="Fill-93" class="cls-1" d="M47.16793,33.29164c-1.13668-.68674-2.13128-1.16036-6.84378-1.16036H32.841v.92355h7.34108c4.16783,0,5.75445.71043,6.22807.9946a3.73174,3.73174,0,0,1,2.17864,3.29165,3.895,3.895,0,0,1-1.77606,3.2206c-.97092.521-2.747.9946-5.84918.9946H21.711v.92355H40.98722c3.76526,0,5.044-.40258,6.37016-1.113a4.38908,4.38908,0,0,0,2.20232-4.02575,4.58,4.58,0,0,0-2.39177-4.04944" transform="translate(-15.104 -5.37187)"/><path id="Fill-94" class="cls-1" d="M66.91779,31.23141v8.45408h4.61778A8.099,8.099,0,0,0,76.177,38.54881a3.63848,3.63848,0,0,0,1.65766-3.14956c0-2.77066-2.3444-4.16783-7.00954-4.16783H66.91779Zm0-10.06438v7.57789h3.4811a7.59007,7.59007,0,0,0,4.381-1.08933,3.505,3.505,0,0,0,1.6103-3.07851c0-2.27337-1.84711-3.43373-5.565-3.43373Zm-3.41,21.00495V18.68053h8.26463A10.49952,10.49952,0,0,1,77.74,20.17243a4.52393,4.52393,0,0,1,2.20232,3.88366,5.00335,5.00335,0,0,1-1.32613,3.4811,7.39125,7.39125,0,0,1-3.67054,2.1076v.071a8.07926,8.07926,0,0,1,4.68882,1.79975,4.909,4.909,0,0,1,1.75238,3.931,5.72736,5.72736,0,0,1-2.67594,4.87826,11.41288,11.41288,0,0,1-6.749,1.87079H63.50774Z" transform="translate(-15.104 -5.37187)"/><path id="Fill-95" class="cls-1" d="M85.17576,42.172h3.31533V25.4059H85.17576Zm1.68135-21.05231a2.33528,2.33528,0,0,1-1.51558-.4973,1.44311,1.44311,0,0,1-.61571-1.23141,1.582,1.582,0,0,1,.61571-1.25509,2.5942,2.5942,0,0,1,3.05483,0,1.544,1.544,0,0,1,.35522,2.13128,1.26852,1.26852,0,0,1-.35522.35522,2.23336,2.23336,0,0,1-1.53925.4973Z" transform="translate(-15.104 -5.37187)"/><path id="Fill-96" class="cls-1" d="M103.14956,42.00622a7.62546,7.62546,0,0,1-3.1022.521c-3.62318,0-5.44661-1.634-5.44661-4.92563V27.67928H91.04862v-2.297h3.55213v-4.0968l3.31533-.87619v4.973h5.20979v2.297H97.91608V37.128a3.4239,3.4239,0,0,0,.71042,2.41545,3.12676,3.12676,0,0,0,2.34441.71043,3.82569,3.82569,0,0,0,2.155-.56834l.02369,2.32072" transform="translate(-15.104 -5.37187)"/><path id="Fill-97" class="cls-1" d="M133.29533,42.172h-3.10219V27.67927a41.95072,41.95072,0,0,1,.26048-4.2152h-.071a11.148,11.148,0,0,1-.80515,2.08392l-9.11715,16.6003H118.921l-9.09346-16.4819a10.4077,10.4077,0,0,1-.80515-2.226h-.071a42.01464,42.01464,0,0,1,.14209,4.23888v14.469H106.086v-21.597h4.14416l8.19359,15.061a17.45429,17.45429,0,0,1,1.23141,2.6049h.1184c.54466-1.184.97092-2.06025,1.27877-2.65227l8.35936-15.01368H133.319V42.172" transform="translate(-15.104 -5.37187)"/><path id="Fill-98" class="cls-1" d="M150.15613,33.67054l-4.99667.56834a9.13663,9.13663,0,0,0-3.48109.92355,2.48522,2.48522,0,0,0-1.18405,2.34441,2.40364,2.40364,0,0,0,1.08932,2.01287,4.804,4.804,0,0,0,2.88907.78147,5.98858,5.98858,0,0,0,4.07312-1.39717,4.53226,4.53226,0,0,0,1.6103-3.55213Zm3.31532,8.50144h-3.31532V39.5434h-.071a7.34269,7.34269,0,0,1-6.37017,3.00747,7.984,7.984,0,0,1-4.85458-1.32613,4.216,4.216,0,0,1-1.75239-3.52845c0-3.12588,2.27336-4.94931,6.84378-5.47029l6.2044-.71042q0-4.26256-4.26256-4.26256a11.63652,11.63652,0,0,0-6.74906,2.06024v-2.747a15.23027,15.23027,0,0,1,7.03323-1.56294c4.87826,0,7.29371,2.08392,7.29371,6.25175V42.172Z" transform="translate(-15.104 -5.37187)"/><path id="Fill-99" class="cls-1" d="M168.864,28.10553a4.87664,4.87664,0,0,0-2.51017-.54466,4.48006,4.48006,0,0,0-3.55213,1.634,6.50248,6.50248,0,0,0-1.42086,4.42833V42.172h-3.31532V25.40591h3.31532v3.45741h.071a5.96354,5.96354,0,0,1,2.17865-2.77066,5.66212,5.66212,0,0,1,3.268-.9946,6.27833,6.27833,0,0,1,1.9892.23681l-.02369,2.77066" transform="translate(-15.104 -5.37187)"/><path id="Fill-100" class="cls-1" d="M180.4203,42.00622a7.62537,7.62537,0,0,1-3.10219.521c-3.62317,0-5.4466-1.634-5.4466-4.92563V27.67928h-3.55214v-2.297h3.55214v-4.0968l3.31532-.87619v4.973h5.2098v2.297h-5.2098V37.128a3.42385,3.42385,0,0,0,.71043,2.41545,3.12675,3.12675,0,0,0,2.34441.71043,3.82566,3.82566,0,0,0,2.155-.56834l.02367,2.32072" transform="translate(-15.104 -5.37187)"/><rect class="cls-2" width="169.79199" height="49.25625"/></svg>