<svg id="Layer_1" data-name="Layer 1" xmlns="http://www.w3.org/2000/svg" viewBox="0 0 110.63637 24.16816"><defs><style>.cls-1{fill:#212631;}.cls-1,.cls-2{fill-rule:evenodd;}.cls-2{fill:#ffd634;}</style></defs><path class="cls-1" d="M46.99462,41.84285a3.59121,3.59121,0,0,1-1.52377-.1576,1.45346,1.45346,0,0,1-.63163-.63391,3.61744,3.61744,0,0,1-.15741-1.52863V18.1576h3.70884a3.58057,3.58057,0,0,1,1.52376.1581,1.45082,1.45082,0,0,1,.63163.63391,3.61473,3.61473,0,0,1,.15741,1.52813V35.12411a1.80284,1.80284,0,0,0,.079.76432.71978.71978,0,0,0,.31582.31671,1.78822,1.78822,0,0,0,.76138.07905h8.6412a3.5806,3.5806,0,0,1,1.52377.1581,1.45085,1.45085,0,0,1,.63163.6339,3.61473,3.61473,0,0,1,.15741,1.52813v3.23853Z" transform="translate(-44.68181 -17.91592)"/><path class="cls-1" d="M110.69,20.47774a3.615,3.615,0,0,1,.1574-1.52813,1.44566,1.44566,0,0,1,.63163-.63391,3.57921,3.57921,0,0,1,1.52327-.1581H115.131a3.18945,3.18945,0,0,1,.951.0715,1.44042,1.44042,0,0,1,.5215.30361,3.21026,3.21026,0,0,1,.53457.792l7.4041,12.97173V20.47774a3.615,3.615,0,0,1,.1574-1.52813,1.44828,1.44828,0,0,1,.63163-.63391,3.58062,3.58062,0,0,1,1.52377-.1581h3.46895V39.51918a3.6106,3.6106,0,0,1-.15741,1.52713,1.44714,1.44714,0,0,1-.63113.6339,3.57467,3.57467,0,0,1-1.52176.15911l-2.12924.00252a3.183,3.183,0,0,1-.952-.071,1.43916,1.43916,0,0,1-.5225-.30311,3.21946,3.21946,0,0,1-.53508-.793l-7.40308-12.97021v11.8182a3.607,3.607,0,0,1-.1579,1.52863,1.44828,1.44828,0,0,1-.63163.63391,3.58853,3.58853,0,0,1-1.52327.1576H110.69Z" transform="translate(-44.68181 -17.91592)"/><path class="cls-1" d="M136.5633,18.1576h-3.469V39.51667a3.61744,3.61744,0,0,0,.15741,1.52863,1.45341,1.45341,0,0,0,.63163.63391,3.59137,3.59137,0,0,0,1.52376.15759h3.469V32.1756h.94645a3.11568,3.11568,0,0,1,.79406.05136,1.43383,1.43383,0,0,1,.46116.22054,3.11678,3.11678,0,0,1,.54011.58607l6.434,7.95181a3.16757,3.16757,0,0,0,.54011.58608,1.45209,1.45209,0,0,0,.46165.22053,3.14351,3.14351,0,0,0,.79407.05086h5.47047l-8.50945-10.49853a3.41723,3.41723,0,0,1-.71562-1.07346,1.45568,1.45568,0,0,1,0-.78245,3.42389,3.42389,0,0,1,.71612-1.07246l.0005-.0005,8.32388-10.25785H149.722a3.11841,3.11841,0,0,0-.79055.05086,1.451,1.451,0,0,0-.46014.219,3.11022,3.11022,0,0,0-.5396.58205L141.64,26.73174a3.14481,3.14481,0,0,1-.5396.58205,1.45119,1.45119,0,0,1-.46015.219,3.12281,3.12281,0,0,1-.79105.05086h-.97309V20.47774a3.61473,3.61473,0,0,0-.15741-1.52813,1.44828,1.44828,0,0,0-.63163-.63391,3.5806,3.5806,0,0,0-1.52377-.1581Z" transform="translate(-44.68181 -17.91592)"/><path class="cls-2" d="M65.55638,41.29252a3.61766,3.61766,0,0,1-.1574-1.52863V20.23606a3.615,3.615,0,0,1,.1574-1.52813A1.44828,1.44828,0,0,1,66.188,18.074a3.5806,3.5806,0,0,1,1.52377-.1581h7.56451a16.236,16.236,0,0,1,3.85165.22255,6.51461,6.51461,0,0,1,4.59946,4.61409,16.42994,16.42994,0,0,1,.22127,3.86388v.0005a2.46514,2.46514,0,0,1-1.10133,2.20987c-.37667.30563-.70506.572-.70506,1.11325,0,.5332.3827.79956.82625,1.10871A2.52306,2.52306,0,0,1,84.31025,33.384a16.41112,16.41112,0,0,1-.22077,3.85733,6.51456,6.51456,0,0,1-4.601,4.61712,16.22731,16.22731,0,0,1-3.84511.22305l-7.93112.00252a3.57464,3.57464,0,0,1-1.52377-.1576,1.4494,1.4494,0,0,1-.63213-.63391ZM76.181,25.84105a3.96011,3.96011,0,0,0,.84687-2.12478,2.89853,2.89853,0,0,0-2.89666-2.90018A2.93842,2.93842,0,0,0,71.234,23.71627a3.9,3.9,0,0,0,.87,2.12478,6.90639,6.90639,0,0,1,0,8.31886,3.897,3.897,0,0,0-.87,2.12427,2.89691,2.89691,0,1,0,5.79382,0,3.957,3.957,0,0,0-.84687-2.12427,7.05826,7.05826,0,0,1,0-8.31886Z" transform="translate(-44.68181 -17.91592)"/><path class="cls-1" d="M93.14255,37.13007l-.98617,3.09855a3.32787,3.32787,0,0,1-.4526,1.08454,1.44108,1.44108,0,0,1-.58285.42747,3.32452,3.32452,0,0,1-1.16772.10221H85.59213L92.59239,19.657a3.334,3.334,0,0,1,.4511-1.08857,1.44034,1.44034,0,0,1,.58335-.42848,3.30813,3.30813,0,0,1,1.17024-.10322h4.80363a3.30653,3.30653,0,0,1,1.17023.10322,1.437,1.437,0,0,1,.58336.42848,3.33,3.33,0,0,1,.45109,1.08807l7.00429,22.18631h-4.3636a3.326,3.326,0,0,1-1.16771-.10221,1.44776,1.44776,0,0,1-.58285-.42747,3.33927,3.33927,0,0,1-.45261-1.08454l-.98617-3.09855Zm1.23008-3.8669h5.65351l-2.82726-8.88228Z" transform="translate(-44.68181 -17.91592)"/></svg>