<svg id="Layer_1" data-name="Layer 1" xmlns="http://www.w3.org/2000/svg" viewBox="0 0 177.58149 37.20001"><defs><style>.cls-1{fill:#eb1a6b;}.cls-2{fill:#1d1d1b;fill-rule:evenodd;}</style></defs><path class="cls-1" d="M25.62461,25.47444c.8,1.4-1,1.8-1.8,1.9-1.2.1-1.5-.6-1.3-1.5a2.17742,2.17742,0,0,1,.5-.8,1.48924,1.48924,0,0,1,.9-.4,1.34439,1.34439,0,0,1,.9.2A1.242,1.242,0,0,1,25.62461,25.47444Z" transform="translate(-10.62462 -7.67444)"/><path class="cls-1" d="M30.42461,22.97444c-.9,7,11.3,5.5,11.1,11a5.78938,5.78938,0,0,0-1.8-8C36.52462,23.97444,32.42461,25.07445,30.42461,22.97444Z" transform="translate(-10.62462 -7.67444)"/><path class="cls-1" d="M37.52462,20.27444c-.1-.1-.2-.1-.2-.2A.21507.21507,0,0,0,37.52462,20.27444Z" transform="translate(-10.62462 -7.67444)"/><path class="cls-1" d="M40.32462,25.37444h0a2.09185,2.09185,0,0,0-.4-.6,2.45431,2.45431,0,0,0-1.7-1.1,5.90192,5.90192,0,0,0-1.4-.2c-.5,0-.9-.1-1.4-.1a28.85535,28.85535,0,0,1-2.9-.4c-.2-.1-.5-.1-.7-.2-.1,0-.2-.1-.4-.1-.1-.1-.2-.1-.4-.2a3.77831,3.77831,0,0,1-1.2-.9c-.7-.7-1.3-1.5-1.9-2.2a19.16671,19.16671,0,0,0-1.8-2.2,7.231,7.231,0,0,0-2.2-1.7,8.42289,8.42289,0,0,0-2.7-.8,5.7077,5.7077,0,0,1,2.9.4,8.214,8.214,0,0,1,2.5,1.6,8.636,8.636,0,0,1,1.3,1.4,10.33032,10.33032,0,0,1,7.4,1h0a6.56935,6.56935,0,0,1,1.7,1.2c.1.1.2.1.2.2a11.98511,11.98511,0,0,1,1.1,1.2h0A5.6839,5.6839,0,0,1,40.32462,25.37444Z" transform="translate(-10.62462 -7.67444)"/><path class="cls-1" d="M40.32462,25.37444Z" transform="translate(-10.62462 -7.67444)"/><path class="cls-1" d="M21.52462,15.47444a3.21488,3.21488,0,0,1,2.1,1,5.58012,5.58012,0,0,1,.9,2.1,8.46887,8.46887,0,0,0,.4,1.7,4.348,4.348,0,0,0,.4.7c.1.2.3.4.4.6v.2c-.3.3-1,0-1.3-.2a4.12475,4.12475,0,0,1-1.3-1,7.06865,7.06865,0,0,1-1.7-4.6A4.33105,4.33105,0,0,0,21.52462,15.47444Z" transform="translate(-10.62462 -7.67444)"/><path class="cls-1" d="M34.52462,29.47444c-1.7,4.7,6,7.9,3.1,12.7a6.12342,6.12342,0,0,0,3.1-7.8C39.72462,31.77444,36.52462,30.77444,34.52462,29.47444Z" transform="translate(-10.62462 -7.67444)"/><path class="cls-1" d="M24.42462,35.57445l1.5-.9a8.44749,8.44749,0,0,1,1.7-.5,15.0469,15.0469,0,0,0,3.2-.7,3.52808,3.52808,0,0,0,1.3-.8,2.54975,2.54975,0,0,0,.8-1.2,3.887,3.887,0,0,0,.2-1.5,4.19259,4.19259,0,0,0-.4-1.6,4.17149,4.17149,0,0,1,.9,1.6,3.67243,3.67243,0,0,1,.1,1.8,4.01085,4.01085,0,0,1-.9,1.7,4.35475,4.35475,0,0,1-1.6,1,11.62836,11.62836,0,0,1-1.8.4c-.6,0-1.1.1-1.7.1A9.5998,9.5998,0,0,0,24.42462,35.57445Z" transform="translate(-10.62462 -7.67444)"/><path class="cls-1" d="M35.22462,43.87444c-.2.1-.3.3-.5.4l-.6.3a3.19418,3.19418,0,0,1-1.4.3,3.1235,3.1235,0,0,1-2.7-2.1c-.4-.7-.6-1.5-1-2.2a3.24217,3.24217,0,0,0-2.9-1.7,1.64007,1.64007,0,0,0-1.2.7,1.697,1.697,0,0,0,1.7,2.5.36737.36737,0,0,0,.3-.1c.1,0,.2-.1.3-.2a2.09193,2.09193,0,0,0,.4-.6,1.94927,1.94927,0,0,0,.1-.8.91831.91831,0,0,0-.4-.6.90155.90155,0,0,1,.6.6,4.90725,4.90725,0,0,0-.1,1.1,2.01018,2.01018,0,0,1-.4.8,1.38046,1.38046,0,0,1-.4.3.75812.75812,0,0,1-.4.2,2.76856,2.76856,0,0,1-.9.1,2.56692,2.56692,0,0,1-1.2-.5c-.4-.3-.7-.8-1.1-1.1a4.17683,4.17683,0,0,0-1.5-1.1,5.63765,5.63765,0,0,0-1.2-.4c-.2,0-.4-.1-.6-.1-.1,0-.6-.1-.6-.1.7-.6,1.4-1.1,2.1-1.6a11.17564,11.17564,0,0,1,2.5-1.1,6.54144,6.54144,0,0,1,2.8-.2,7.36631,7.36631,0,0,1,1.4.4,5.66945,5.66945,0,0,1,1.3.8,4.701,4.701,0,0,1,.9,1.2,5.73232,5.73232,0,0,1,.4,1.4c.3,1.4.2,3.6,2,3.9h.6a1.2684,1.2684,0,0,0,.6-.1A2.96738,2.96738,0,0,0,35.22462,43.87444Z" transform="translate(-10.62462 -7.67444)"/><path class="cls-1" d="M24.52462,42.37444Z" transform="translate(-10.62462 -7.67444)"/><path class="cls-1" d="M22.92462,22.57445a4.87573,4.87573,0,0,1-.3.7,3.12592,3.12592,0,0,1-1.1.9,2.76812,2.76812,0,0,1-1.3.3h-.3a1.32984,1.32984,0,0,0-.8.3,1.0122,1.0122,0,0,0-.4.7c0,.1-.1.3-.1.4,0,.4-.1.7-.1,1.2a7.9447,7.9447,0,0,1-.6,2.2,5.29984,5.29984,0,0,0-.8,2.7,2.35762,2.35762,0,0,0,.9,1.6c.8.9,2.7,1.3,2.3,3.4-.3,1.3-2.4,2.6-5.3,3.1.3,0-.4-1.2-.4-1.3a11.90545,11.90545,0,0,1-.9-1.5,5.69991,5.69991,0,0,1-.5-3.4,8.13677,8.13677,0,0,1,1.8-3.1,8.43222,8.43222,0,0,0,2-4,5.987,5.987,0,0,1,.2-1.2,7.366,7.366,0,0,1,.4-1.4,2.09694,2.09694,0,0,1,.6-.8.75812.75812,0,0,0,.2-.4.90151.90151,0,0,0-.1-.5l-4.7-8.5,6.8,8.4c.1.1.2.2.3.2.1.1.2.1.4.1a.75592.75592,0,0,0,.4-.1c.1-.1.2-.1.3-.2s.1-.2.1-.4a.60123.60123,0,0,0-.1-.4,20.94784,20.94784,0,0,0-1.4-1.7l-1.7-2.1-3.4-4.2-4.7-5.9,5.1,5.5,3.6,4,1.8,2c.6.7,1.2,1.3,1.8,2.1l.1.1v.2A3.08271,3.08271,0,0,1,22.92462,22.57445Z" transform="translate(-10.62462 -7.67444)"/><path class="cls-1" d="M24.52462,42.27444l-.9-.9A2.58091,2.58091,0,0,0,24.52462,42.27444Z" transform="translate(-10.62462 -7.67444)"/><path class="cls-2" d="M112.62462,19.67444c-3.3.8-4.8,3.4-3.9,6.5a6.978,6.978,0,0,0,3.4,3.7c3.1,1.8,4.1,2.5,4.6,3.6a2.63466,2.63466,0,0,1,.3,2.1,3.6969,3.6969,0,0,1-3.9,3,3.61226,3.61226,0,0,1-3.8-3c-.1-.8-.3-1-.6-1-.4,0-.5.2-.5,2.1v2.1l1.3.4a10.17866,10.17866,0,0,0,6.7-.2c3.4-1.6,4.7-4.7,3.2-7.6-.6-1.1-2-2.3-4.4-3.8-2.6-1.6-3.7-2.7-3.9-3.8-.3-1.8,1.3-3.2,3.5-3.2,1.7,0,2.4.4,3,1.7.4.8.6,1.1,1.1,1.1s.6-.1.4-.6a7.18027,7.18027,0,0,1-.2-1.7c0-.8-.1-1.2-.4-1.3A19.34019,19.34019,0,0,0,112.62462,19.67444Zm-66,.7c0,.4.2.5.6.5,1.2,0,1.3.3,1.4,7.6.1,6.3.2,6.8.7,7.8a6.5094,6.5094,0,0,0,3.2,2.9c1,.5,1.7.6,3.8.6,2.2,0,2.7-.1,3.9-.7a7.82074,7.82074,0,0,0,2.2-1.6c1.4-1.7,1.6-2.6,1.7-9.6.2-6.8.2-6.9,1.3-6.9.3,0,.4-.2.4-.5,0-.5-.2-.5-3-.5s-3,0-3,.5c0,.4.2.5.8.6,1.3.1,1.4.6,1.4,6.8,0,6.3-.2,7.5-1.6,8.8a4.80022,4.80022,0,0,1-3.9,1.6c-2.4,0-4.2-1.1-4.7-3.1a40.00454,40.00454,0,0,1-.2-7.4l.1-6.4.9-.3a2.124,2.124,0,0,0,1-.7c.1-.4-.3-.4-3.4-.4C46.82462,19.87444,46.62461,19.87444,46.62461,20.37444Zm23.3,0c0,.4.2.5.7.5a2.04808,2.04808,0,0,1,2.3,1.6,58.21345,58.21345,0,0,1,.2,7.6c-.1,7.4-.2,7.9-1.7,8.2-.5.1-.7.3-.7.6,0,.4.2.5,3.5.5,3.2,0,3.5,0,3.5-.4,0-.3-.3-.5-1.1-.7-1-.3-1.1-.4-1.4-1.2-.4-1.2-.4-12.5-.1-12.4a16.40208,16.40208,0,0,1,2.2,2.3c1.1,1.3,4,4.6,6.6,7.3,4,4.3,4.7,5.1,5.3,5.1h.7l.1-8.8c.1-6.3.2-8.9.4-9.1a2.81192,2.81192,0,0,1,1.1-.5c.5-.1.8-.3.8-.5,0-.3-.6-.4-3.4-.4-3.3-.1-3.4-.1-3.4.4,0,.4.2.5.6.5a2.971,2.971,0,0,1,1.3.6l.7.6.1,6c0,3.4,0,6-.1,6a11.96119,11.96119,0,0,1-1.7-1.7c-.8-.9-3.1-3.5-5.1-5.7s-4.2-4.6-4.9-5.4l-1.2-1.4h-2.6C70.02461,19.87444,69.92461,19.87444,69.92461,20.37444Zm26.2,0c0,.4.2.5.7.5a2.45,2.45,0,0,1,1.2.4c.5.3.5.8.6,7.7.1,8.6,0,9.1-1.5,9.3-.7.1-1,.3-1,.6,0,.4.3.5,3.8.5,3.6,0,3.8,0,3.8-.5,0-.4-.2-.5-.6-.5a2.46033,2.46033,0,0,1-1.1-.4c-.5-.3-.5-.8-.6-8.2-.1-7.6-.1-7.9.4-8.4a1.82322,1.82322,0,0,1,1.1-.5c.5,0,.6-.1.6-.5,0-.5-.2-.5-3.8-.5C96.32462,19.87444,96.12462,19.87444,96.12462,20.37444Zm26.3,0a.66623.66623,0,0,0,.7.5,2.02248,2.02248,0,0,1,1.1.6,97.194,97.194,0,0,1,3.9,9.3l3.3,8.7.9.1.9.1,2.3-6.2c1.3-3.4,2.5-6.5,2.6-6.8.3-.6.3-.5,1.1,1.5.4,1.2,1.6,4.2,2.6,6.8l1.8,4.7h.8c.4,0,.8-.1.9-.3s1.2-3.1,2.6-6.5c1.3-3.4,2.8-7.2,3.3-8.4,1.1-2.8,1.3-3.1,2.1-3.4.4-.1.7-.4.7-.6,0-.3-.5-.4-3-.4-2.8,0-3,0-3,.5,0,.4.2.5.6.5,1,0,1.4.3,1.4.9,0,.5-4.8,13.4-5.1,13.7-.2.2-4.5-11.8-4.6-13-.2-1.1.3-1.6,1.4-1.6.4,0,.6-.1.6-.5,0-.5-.2-.5-3.9-.5s-3.9,0-3.9.5a.4575.4575,0,0,0,.4.5,2.742,2.742,0,0,1,2.1,1.5c.4,1.1.1,2.2-2.2,8.2l-1.9,5.1-.4-1c-.2-.5-1.4-3.7-2.6-7-2.4-6.5-2.4-6.8-.8-6.8.6,0,.7-.1.7-.5,0-.5-.2-.5-3.7-.5C122.32462,19.87444,122.22462,19.87444,122.42461,20.37444Zm50.6.2v.4c0,.1.3.1.3.1.2,0,.3.1.5.1.8.2,1.3.3,1.5.8.1.3.2,1.5.2,7.8,0,6.6,0,7.4-.2,7.8-.2.5-.6.8-1.6,1.1a1.6896,1.6896,0,0,0-.5.2.5.5,0,0,0,0,.6c.1.1.4.1.4.1h6.7a.42573.42573,0,0,0,.3-.7,1.6895,1.6895,0,0,0-.5-.2c-.9-.2-1.4-.5-1.6-1-.2-.4-.2-1.3-.2-3.4v-3c.1.1.2.1.3.2a5.04057,5.04057,0,0,0,3.3.8,5.82572,5.82572,0,0,0,5.3-2.5,7.03819,7.03819,0,0,0,.6-6c-.7-2.3-2.8-3.8-5.7-3.9a40.43639,40.43639,0,0,0-5,.1h-.3c-1.1,0-2.5.2-3.2.2h0c-.2,0-.2,0-.3.1C173.02461,20.47444,173.02461,20.57445,173.02461,20.57445Zm11.1,9.2c1.1-1,1.1-2.6,1.1-3.7-.1-1.6-.8-4.7-4.4-4.7-.9,0-2.6.1-2.7,1.3a28.64146,28.64146,0,0,0-.1,3.9v3.6l.4.2h0a4.64909,4.64909,0,0,0,.9.3A5.75341,5.75341,0,0,0,184.12462,29.77444Zm-23-9.6a4.2025,4.2025,0,0,0,.5-.2s.4-.2.5,0c0,.1.2.4.6,1.4a1.42127,1.42127,0,0,1,.2.6c.5,1.4,1.3,3.4,1.7,4.5s1.2,3.1,1.8,4.7c.6,1.5,1.3,3.4,1.7,4.3a11.6036,11.6036,0,0,0,.9,1.9c.1.1.1.2.2.3.3.4.6,1,1.3,1.1a2.07329,2.07329,0,0,1,.6.2.3097.3097,0,0,1,.1.2v.3a.09794.09794,0,0,1-.1.1c0,.1-.2,0-.2,0h-7.4c-.1,0-.1-.2-.1-.2v-.2a.49374.49374,0,0,1,.1-.3,2.07315,2.07315,0,0,1,.6-.2,1.61946,1.61946,0,0,0,1.4-1.2v-.1c.2-.4.1-.7-.8-2.8a10.65682,10.65682,0,0,0-.9-1.9h-6.7l-.2.5a19.6014,19.6014,0,0,0-1.1,3.5,1.53981,1.53981,0,0,0,1.3,2,2.07329,2.07329,0,0,1,.6.2,1.4381,1.4381,0,0,1,.2.3v.2a.3097.3097,0,0,1-.1.2c-.1.1-.3,0-.3,0h-6.1a.35355.35355,0,0,1-.3-.3v-.2s0-.1.2-.3a.98753.98753,0,0,1,.6-.2c.8-.1,1.3-1,1.6-1.5a.09794.09794,0,0,1,.1-.1c.1-.2.6-1.3,1.1-2.5s1-2.6,1.2-3c.6-1.5,1.2-2.9,2.1-5.1.5-1.2,1.2-3,1.6-4l.7-1.8Zm-.2,4.3a11.21513,11.21513,0,0,1,.5,1.3c.1.3.5,1.2.8,2s.7,1.7.9,2.1a5.94616,5.94616,0,0,1,.3.7h-2.7a11.68144,11.68144,0,0,1-2.7-.1,1.03435,1.03435,0,0,0,.1-.4c.1-.3.7-1.9,1.9-5.3a8.19884,8.19884,0,0,0,.4-1.1C160.52461,23.67444,160.62462,23.77444,160.92462,24.47444Z" transform="translate(-10.62462 -7.67444)"/></svg>